<?xml version="1.0" encoding="UTF-8"?>
<!-- Generated by Pixelmator Pro 3.3.13 -->
<svg width="250" height="250" viewBox="0 0 250 250" xmlns="http://www.w3.org/2000/svg">
    <g id="Group">
        <path id="Path" fill="#000000" stroke="none" d="M 183.592422 32.694977 L 199.939911 32.694977 L 199.939911 49.042496 L 183.592422 49.042496 Z M 150.897415 32.694977 L 167.244934 32.694977 L 167.244934 49.042496 L 150.897415 49.042496 Z"/>
        <path id="path1" fill="#000000" stroke="none" d="M 102.817192 212.517426 L 20.11747 212.517426 L 20.11747 147.127441 L 105.124435 147.127441 L 121.471931 130.779968 L 20.11747 130.779968 L 20.11747 81.737457 L 216.287399 81.737457 L 216.287399 101.354431 L 232.634888 117.70192 L 232.634888 8.173737 C 232.634888 3.26944 229.365402 -1.5e-05 224.461151 -1.5e-05 L 11.94372 -1.5e-05 C 7.039473 -1.5e-05 3.769974 3.26944 3.769974 8.173737 L 3.769974 220.691193 C 3.769974 225.59549 7.039473 228.864929 11.94372 228.864929 L 102.817192 228.864929 L 102.817192 212.517426 Z M 20.11747 16.347473 L 216.287399 16.347473 L 216.287399 65.389969 L 20.11747 65.389969 L 20.11747 16.347473 Z"/>
        <path id="path2" fill="#60d838" stroke="none" d="M 186.861908 117.70192 L 242.44339 173.283554 C 244.07814 174.918152 244.07814 178.187592 242.44339 179.822449 C 242.44339 179.822449 240.808655 181.457291 239.173889 181.457291 L 128.010941 181.457291 C 126.376183 181.457291 123.106682 179.822449 123.106682 178.187592 C 123.106682 176.552994 123.106682 176.552994 124.741432 174.918152 L 180.322922 119.336761 C 181.957657 116.067307 185.227173 116.067307 186.861908 117.70192 Z"/>
        <path id="Path-copy" fill="#f9e231" stroke="none" d="M 186.861908 151.973267 L 242.44339 207.554901 C 244.07814 209.189499 244.07814 212.458954 242.44339 214.093796 C 242.44339 214.093796 240.808655 215.728638 239.173889 215.728638 L 128.010941 215.728638 C 126.376183 215.728638 123.106682 214.093796 123.106682 212.458954 C 123.106682 210.824341 123.106682 210.824341 124.741432 209.189499 L 180.322922 153.608124 C 181.957657 150.338654 185.227173 150.338654 186.861908 151.973267 Z"/>
        <path id="Path-copy-3" fill="#ff634d" stroke="none" d="M 186.861908 186.244629 L 242.44339 241.826263 C 244.07814 243.460861 244.07814 246.730316 242.44339 248.365158 C 242.44339 248.365158 240.808655 250 239.173889 250 L 128.010941 250 C 126.376183 250 123.106682 248.365158 123.106682 246.730316 C 123.106682 245.095703 123.106682 245.095703 124.741432 243.460861 L 180.322922 187.879471 C 181.957657 184.610016 185.227173 184.610016 186.861908 186.244629 Z"/>
    </g>
</svg>
