<?xml version="1.0" encoding="UTF-8"?>
<!-- Generated by Pixelmator Pro 2.4.1 -->
<svg width="250" height="250" viewBox="0 0 250 250" xmlns="http://www.w3.org/2000/svg" xmlns:xlink="http://www.w3.org/1999/xlink">
    <path id="Rectangle" fill="#007c77" fill-rule="evenodd" stroke="none" d="M 0 250 L 250 250 L 250 0 L 0 0 Z"/>
    <g id="Group">
        <path id="Path" fill="#ffffff" stroke="none" d="M 171.66951 54.134583 L 184.548553 54.134583 L 184.548553 67.013641 L 171.66951 67.013641 Z M 145.911407 54.134583 L 158.790466 54.134583 L 158.790466 67.013641 L 145.911407 67.013641 Z"/>
        <path id="path1" fill="#ffffff" stroke="none" d="M 108.032364 195.804092 L 42.879047 195.804092 L 42.879047 144.287903 L 109.850082 144.287903 L 122.729126 131.408875 L 42.879047 131.408875 L 42.879047 92.771729 L 197.427597 92.771729 L 197.427597 108.226547 L 210.306641 121.105591 L 210.306641 34.816025 C 210.306641 30.952271 207.730835 28.376495 203.867126 28.376495 L 36.439522 28.376495 C 32.575809 28.376495 30 30.952271 30 34.816025 L 30 202.243622 C 30 206.107376 32.575809 208.683136 36.439522 208.683136 L 108.032364 208.683136 L 108.032364 195.804092 Z M 42.879047 41.255539 L 197.427597 41.255539 L 197.427597 79.892685 L 42.879047 79.892685 L 42.879047 41.255539 Z"/>
        <path id="path2" fill="#60d838" stroke="none" d="M 174.245316 121.105591 L 218.034073 164.89447 C 219.321976 166.182251 219.321976 168.758026 218.034073 170.046005 C 218.034073 170.046005 216.74617 171.333984 215.458252 171.333984 L 127.880753 171.333984 C 126.592842 171.333984 124.017036 170.046005 124.017036 168.758026 C 124.017036 167.47023 124.017036 167.47023 125.304939 166.182251 L 169.093704 122.39357 C 170.381592 119.817795 172.957413 119.817795 174.245316 121.105591 Z"/>
        <path id="Path-copy" fill="#f9e231" stroke="none" d="M 174.245316 148.105591 L 218.034073 191.89447 C 219.321976 193.182251 219.321976 195.758026 218.034073 197.046005 C 218.034073 197.046005 216.74617 198.333984 215.458252 198.333984 L 127.880753 198.333984 C 126.592842 198.333984 124.017036 197.046005 124.017036 195.758026 C 124.017036 194.47023 124.017036 194.47023 125.304939 193.182251 L 169.093704 149.39357 C 170.381592 146.817795 172.957413 146.817795 174.245316 148.105591 Z"/>
        <path id="Path-copy-3" fill="#ff634d" stroke="none" d="M 174.245316 175.105591 L 218.034073 218.89447 C 219.321976 220.182251 219.321976 222.758026 218.034073 224.046005 C 218.034073 224.046005 216.74617 225.333984 215.458252 225.333984 L 127.880753 225.333984 C 126.592842 225.333984 124.017036 224.046005 124.017036 222.758026 C 124.017036 221.47023 124.017036 221.47023 125.304939 220.182251 L 169.093704 176.39357 C 170.381592 173.817795 172.957413 173.817795 174.245316 175.105591 Z"/>
    </g>
</svg>
