<?xml version="1.0" encoding="UTF-8"?>
<!-- Generated by Pixelmator Pro 2.4.1 -->
<svg width="250" height="250" viewBox="0 0 250 250" xmlns="http://www.w3.org/2000/svg" xmlns:xlink="http://www.w3.org/1999/xlink">
    <g id="g1">
        <path id="path1" fill="#000000" stroke="none" d="M 243.673035 123.961502 L 226.800629 107.09021 C 217.159256 97.449493 202.697678 97.449982 193.056946 107.091354 L 149.673615 149.2724 C 140.032883 158.913788 140.033371 173.375366 149.674744 183.016098 L 164.13681 197.477188 L 174.982681 187.835785 L 161.725784 174.579773 C 156.90509 169.759415 156.904846 162.528625 161.72522 157.707947 L 200.288147 119.142426 C 205.108505 114.321732 212.339294 114.321503 217.159988 119.141861 L 230.416885 132.397858 C 235.237564 137.218231 235.237808 144.44902 230.41745 149.269714 L 214.751251 164.936951 C 217.161682 169.757385 219.572144 175.782974 219.572342 181.808624 L 243.674164 157.7052 C 252.109772 148.063843 252.109238 132.397141 243.673035 123.961502 Z"/>
        <path id="path2" fill="#000000" stroke="none" d="M 185.827637 151.681473 L 174.981781 161.322876 L 188.238678 174.578888 C 193.059372 179.399246 193.059616 186.630035 188.239243 191.450729 L 149.676331 230.016235 C 144.855957 234.836929 137.625168 234.837158 132.804474 230.0168 L 119.547585 216.760803 C 114.726898 211.94043 114.726654 204.709641 119.54702 199.888962 L 135.213211 184.22171 C 132.80278 179.401276 130.392319 173.375702 130.39212 167.350037 L 106.290291 191.453476 C 96.649559 201.094849 96.650047 215.556427 106.29142 225.197159 L 123.163834 242.068451 C 132.805206 251.709167 147.266785 251.708679 156.907516 242.067322 L 199.085709 199.886292 C 208.72644 190.244919 208.725967 175.78334 199.084579 166.142609 L 185.827637 151.681473 Z"/>
    </g>
    <path id="path2-copy" fill="#74fbea" stroke="none" d="M 78.245316 21.105591 L 122.034073 64.89447 C 123.321976 66.182251 123.321976 68.758026 122.034073 70.046005 C 122.034073 70.046005 120.74617 71.333984 119.458252 71.333984 L 31.880753 71.333984 C 30.592842 71.333984 28.017036 70.046005 28.017036 68.758026 C 28.017036 67.47023 28.017036 67.47023 29.304939 66.182251 L 73.093704 22.39357 C 74.381592 19.817795 76.957413 19.817795 78.245316 21.105591 Z"/>
    <path id="Path-copy-copy" fill="#1ee5ce" stroke="none" d="M 78.245316 48.105591 L 122.034073 91.89447 C 123.321976 93.182251 123.321976 95.758026 122.034073 97.046005 C 122.034073 97.046005 120.74617 98.333984 119.458252 98.333984 L 31.880753 98.333984 C 30.592842 98.333984 28.017036 97.046005 28.017036 95.758026 C 28.017036 94.47023 28.017036 94.47023 29.304939 93.182251 L 73.093704 49.39357 C 74.381592 46.817795 76.957413 46.817795 78.245316 48.105591 Z"/>
    <path id="Path-copy-3-copy" fill="#05a89d" stroke="none" d="M 78.245316 75.105591 L 122.034073 118.89447 C 123.321976 120.182251 123.321976 122.758026 122.034073 124.046005 C 122.034073 124.046005 120.74617 125.333984 119.458252 125.333984 L 31.880753 125.333984 C 30.592842 125.333984 28.017036 124.046005 28.017036 122.758026 C 28.017036 121.47023 28.017036 121.47023 29.304939 120.182251 L 73.093704 76.39357 C 74.381592 73.817795 76.957413 73.817795 78.245316 75.105591 Z"/>
    <g id="g2">
        <path id="Path-copy-5" fill="#ffedcf" stroke="none" d="M 27.85 191.149994 L 27.85 158.023102 L 143.794159 42.078934 L 176.921066 42.078934 L 176.921066 75.205841 L 60.976906 191.149994 Z"/>
        <path id="Path-copy-4" fill="#333333" stroke="none" d="M 52.695179 191.149994 L 27.85 191.149994 L 27.85 166.304825 Z"/>
        <path id="Path-copy-3" fill="#ff8700" stroke="none" d="M 160.35762 91.769287 L 77.540359 174.586548 L 44.413452 141.459641 L 127.230713 58.64238 Z"/>
        <path id="Path-copy-2" fill="#b9b9b9" stroke="none" d="M 143.794159 42.078934 L 176.921066 75.205841 L 160.35762 91.769287 L 127.230713 58.64238 Z"/>
        <path id="Path-copy" fill="#c83c3c" stroke="none" d="M 176.921066 78.518524 L 140.481476 42.078934 L 152.075897 30.484512 C 155.38858 27.171829 162.013977 27.171829 165.32666 30.484512 L 188.515488 53.67334 C 191.828171 56.986023 191.828171 63.61142 188.515488 66.924103 L 176.921066 78.518524 Z"/>
    </g>
</svg>
