<?xml version="1.0" encoding="UTF-8"?>
<!-- Generated by Pixelmator Pro 2.4.1 -->
<svg width="250" height="250" viewBox="0 0 250 250" xmlns="http://www.w3.org/2000/svg" xmlns:xlink="http://www.w3.org/1999/xlink">
    <g id="Group">
        <g id="g1">
            <path id="path1" fill="#60d838" stroke="none" d="M 113.866119 28.590485 L 179.120544 93.840698 C 181.039795 95.759644 181.039917 99.597946 179.120804 101.517319 C 179.120804 101.517319 177.201675 103.436676 175.282471 103.436737 L 44.778034 103.441116 C 42.858841 103.441177 39.020416 101.522003 39.020351 99.602707 C 39.020287 97.683701 39.020287 97.683701 40.939404 95.764343 L 106.189461 30.51004 C 108.10849 26.671646 111.946877 26.671524 113.866119 28.590485 Z"/>
            <path id="Path-copy" fill="#f9e231" stroke="none" d="M 113.953667 68.897491 L 180.58725 135.526794 C 182.547058 137.486298 182.547195 141.405716 180.587509 143.365662 C 180.587509 143.365662 178.627838 145.325577 176.66806 145.325653 L 43.405392 145.330109 C 41.445637 145.33017 37.526089 143.370453 37.52602 141.410583 C 37.525955 139.451004 37.525955 139.451004 39.485634 137.491089 L 106.114761 70.85762 C 108.074348 66.93811 111.993858 66.937988 113.953667 68.897491 Z"/>
            <path id="Path-copy-3" fill="#ff634d" stroke="none" d="M 113.95504 109.982162 L 180.588623 176.61145 C 182.548431 178.570953 182.548569 182.490387 180.588882 184.450317 C 180.588882 184.450317 178.629211 186.410248 176.669434 186.410309 L 43.406769 186.414764 C 41.447014 186.414841 37.527462 184.455109 37.527397 182.495239 C 37.527332 180.535675 37.527332 180.535675 39.487011 178.575745 L 106.116135 111.942291 C 108.075722 108.022781 111.995232 108.022644 113.95504 109.982162 Z"/>
        </g>
    </g>
    <g id="g2">
        <path id="path2" fill="#000000" stroke="none" d="M 243.673035 123.961502 L 226.800629 107.09021 C 217.159256 97.449493 202.697678 97.449982 193.056946 107.091354 L 149.673615 149.2724 C 140.032883 158.913788 140.033371 173.375366 149.674744 183.016098 L 164.13681 197.477188 L 174.982681 187.835785 L 161.725784 174.579773 C 156.90509 169.759415 156.904846 162.528625 161.72522 157.707947 L 200.288147 119.142426 C 205.108505 114.321732 212.339294 114.321503 217.159988 119.141861 L 230.416885 132.397858 C 235.237564 137.218231 235.237808 144.44902 230.41745 149.269714 L 214.751251 164.936951 C 217.161682 169.757385 219.572144 175.782974 219.572342 181.808624 L 243.674164 157.7052 C 252.109772 148.063843 252.109238 132.397141 243.673035 123.961502 Z"/>
        <path id="path3" fill="#000000" stroke="none" d="M 185.827637 151.681473 L 174.981781 161.322876 L 188.238678 174.578888 C 193.059372 179.399246 193.059616 186.630035 188.239243 191.450729 L 149.676331 230.016235 C 144.855957 234.836929 137.625168 234.837158 132.804474 230.0168 L 119.547585 216.760803 C 114.726898 211.94043 114.726654 204.709641 119.54702 199.888962 L 135.213211 184.22171 C 132.80278 179.401276 130.392319 173.375702 130.39212 167.350037 L 106.290291 191.453476 C 96.649559 201.094849 96.650047 215.556427 106.29142 225.197159 L 123.163834 242.068451 C 132.805206 251.709167 147.266785 251.708679 156.907516 242.067322 L 199.085709 199.886292 C 208.72644 190.244919 208.725967 175.78334 199.084579 166.142609 L 185.827637 151.681473 Z"/>
    </g>
</svg>
